<svg width="165" height="124" viewBox="0 0 165 124" fill="none" xmlns="http://www.w3.org/2000/svg">
<path d="M96.6476 30.9922V46.6153H87.2164V30.9922H77.7853V46.6153H68.3541V30.9922H58.923V46.6153H58.8789V92.5591L82.5008 68.9371L106.079 92.526V46.6153V30.9922H96.6476Z" fill="#fbbf24"/>
<path d="M129.709 100.954V22.9925C132.254 31.0465 133.808 43.0117 133.808 61.9731C133.808 80.9346 132.254 92.8888 129.709 100.954ZM129.621 7.54571V20.0288C128.024 17.715 126.327 15.5996 124.531 13.6715C119.154 7.66691 112.929 3.73359 106.109 1.69531V6.46598C107.927 7.53469 109.602 8.88987 111.122 10.5535C117.436 17.4727 122.008 29.4268 122.008 61.9621C122.008 94.4974 117.436 106.452 111.122 113.371C109.602 115.034 107.927 116.39 106.109 117.458V122.229C112.929 120.191 119.154 116.257 124.531 110.253C126.316 108.325 128.024 106.198 129.621 103.895V116.379C131.979 114.649 134.216 112.61 136.32 110.253C145.938 99.863 153.199 84.1077 153.199 61.9511C153.199 39.7945 145.938 24.0392 136.32 13.6495C134.216 11.2917 131.968 9.25345 129.621 7.52367" fill="#fbbf24"/>
<path d="M82.5136 120.477C82.5136 120.477 82.5136 120.477 82.5025 120.477C82.4915 120.477 82.5025 120.477 82.4915 120.477C75.7377 120.466 70.0746 118.218 65.6675 113.382C63.0784 110.539 60.7757 106.837 58.9688 101.207V116.389C65.9319 121.502 73.8977 123.926 82.4695 123.937C82.4695 123.937 82.4805 123.937 82.4915 123.937C82.4915 123.937 82.5025 123.937 82.5136 123.937C82.5136 123.937 82.5246 123.937 82.5356 123.937C82.5466 123.937 82.5466 123.937 82.5576 123.937C91.1404 123.915 99.1062 121.502 106.058 116.389V101.207C104.251 106.837 101.949 110.539 99.3596 113.382C94.9525 118.218 89.2894 120.466 82.5356 120.477" fill="#fbbf24"/>
<path d="M82.5459 0C82.5459 0 82.5349 0 82.5239 0C82.5239 0 82.5129 0 82.5018 0C82.4908 0 82.4908 0 82.4798 0C82.4688 0 82.4688 0 82.4578 0C73.875 0.0110177 65.9092 2.43491 58.957 7.54712V22.7295C60.7639 17.0995 63.0666 13.3975 65.6668 10.555C70.0739 5.71819 75.737 3.47057 82.4908 3.45956H82.5239C89.2777 3.47057 94.9408 5.71819 99.3479 10.555C101.937 13.3975 104.24 17.0995 106.047 22.7295V7.54712C99.0835 2.43491 91.1177 0.0110177 82.5459 0Z" fill="#fbbf24"/>
<path d="M153.289 20.1406V103.798C160.23 93.6948 165.001 79.9447 165.001 61.9748C165.001 44.005 160.23 30.2439 153.289 20.1516" fill="#fbbf24"/>
<path d="M35.2898 100.955C32.7447 92.9012 31.1912 80.936 31.1912 61.9745C31.1912 43.0131 32.7447 31.0479 35.2898 22.9939V100.955ZM40.4571 13.673C38.6722 15.6011 36.9645 17.7275 35.3669 20.0302V7.54711C33.0091 9.27689 30.7726 11.3152 28.6682 13.673C19.0497 24.0626 11.7891 39.8179 11.7891 61.9745C11.7891 84.1311 19.0497 99.8864 28.6682 110.276C30.7726 112.634 33.0202 114.672 35.3669 116.402V103.919C36.9645 106.233 38.6612 108.348 40.4571 110.276C45.8337 116.281 52.0587 120.214 58.8787 122.252V117.482C57.0608 116.413 55.3861 115.058 53.8656 113.394C47.5525 106.464 42.9802 94.5208 42.9802 61.9855C42.9802 29.4503 47.5525 17.4961 53.8656 10.577C55.3861 8.91331 57.0608 7.55813 58.8787 6.48941V1.71875C52.0587 3.75702 45.8337 7.69034 40.4571 13.695" fill="#fbbf24"/>
<path d="M11.7118 103.81V20.1523C4.77066 30.2556 0 44.0056 0 61.9755C0 79.9454 4.77066 93.7065 11.7118 103.799" fill="#fbbf24"/>
</svg>
