<svg width="177" height="97" viewBox="0 0 177 97" fill="none" xmlns="http://www.w3.org/2000/svg">
<path d="M71.8164 28.8604V68.1434C75.0597 63.4014 77.2956 56.9411 77.2956 48.5045C77.2956 40.0679 75.0649 33.6075 71.8164 28.8655" fill="#F57622"/>
<path d="M38.7103 75.9715C38.7103 75.9715 38.7103 75.9715 38.7052 75.9715C38.7052 75.9715 38.7052 75.9715 38.7001 75.9715C35.539 75.9664 32.8919 74.9086 30.8307 72.6382C29.6177 71.3017 28.5434 69.5628 27.6953 66.9209V74.052C30.9489 76.4514 34.6754 77.5866 38.6898 77.5969C38.6898 77.5969 38.6949 77.5969 38.7001 77.5969C38.7052 77.5969 38.7052 77.5969 38.7103 77.5969C38.7103 77.5969 38.7155 77.5969 38.7206 77.5969C38.7257 77.5969 38.7258 77.5969 38.7309 77.5969C42.7452 77.5918 46.4717 76.4514 49.7253 74.052V66.9209C48.8773 69.5628 47.803 71.3017 46.59 72.6382C44.5288 74.9086 41.8817 75.9664 38.7206 75.9715" fill="#F57622"/>
<path d="M38.7231 19.4023C38.7231 19.4023 38.7179 19.4023 38.7128 19.4023C38.7077 19.4023 38.7077 19.4023 38.7025 19.4023C38.7025 19.4023 38.6974 19.4023 38.6922 19.4023C38.6871 19.4023 38.6871 19.4023 38.682 19.4023C34.6676 19.4075 30.9411 20.5479 27.6875 22.9473V30.0784C28.5356 27.4365 29.6099 25.6975 30.8229 24.3611C32.884 22.0907 35.5311 21.0329 38.6922 21.0277C38.6922 21.0277 38.6922 21.0277 38.6974 21.0277C38.6974 21.0277 38.6974 21.0277 38.7025 21.0277C41.8636 21.0329 44.5107 22.0907 46.5719 24.3611C47.7849 25.6975 48.8592 27.4365 49.7073 30.0784V22.9473C46.4536 20.5479 42.7271 19.4075 38.7128 19.4023H38.7231Z" fill="#F57622"/>
<path d="M16.6234 66.8024C15.4309 63.0201 14.7061 57.406 14.7061 48.4999C14.7061 39.5937 15.436 33.9796 16.6234 30.1973V66.8024ZM19.0392 25.8217C18.2013 26.7298 17.4047 27.7257 16.6594 28.8093V22.9475C15.5594 23.7577 14.5108 24.7174 13.5239 25.8217C9.02131 30.6979 5.62891 38.0973 5.62891 48.4999C5.62891 58.9024 9.02131 66.3019 13.5239 71.1781C14.5108 72.2875 15.5594 73.2421 16.6594 74.0522V68.1904C17.4047 69.274 18.2013 70.2699 19.0392 71.1781C21.5526 74.0006 24.467 75.8427 27.6538 76.8025V74.563C26.8057 74.0625 26.0244 73.4278 25.31 72.6435C22.3596 69.3927 20.2214 63.7838 20.2214 48.4999C20.2214 33.2159 22.3596 27.6122 25.31 24.3562C26.0193 23.5719 26.8057 22.9372 27.6538 22.4367V20.1973C24.467 21.157 21.5526 22.9991 19.0392 25.8217Z" fill="#F57622"/>
<path d="M5.59252 68.1385V28.8555C2.34918 33.5975 0.113281 40.0578 0.113281 48.4944C0.113281 56.931 2.34404 63.3914 5.59252 68.1334" fill="#F57622"/>
<path d="M60.7843 66.8024V30.1973C61.9768 33.9796 62.7016 39.5937 62.7016 48.4999C62.7016 57.406 61.9717 63.0201 60.7843 66.8024ZM60.7484 22.9475V28.8093C60.0031 27.7257 59.2064 26.7298 58.3686 25.8217C55.8551 22.9991 52.9407 21.157 49.7539 20.1973V22.4367C50.602 22.9372 51.3833 23.5719 52.0977 24.3562C55.0481 27.607 57.1863 33.2159 57.1863 48.4999C57.1863 63.7838 55.0481 69.3875 52.0977 72.6435C51.3884 73.4278 50.602 74.0625 49.7539 74.563V76.8025C52.9407 75.8427 55.8551 74.0006 58.3686 71.1781C59.2064 70.2699 60.0031 69.274 60.7484 68.1904V74.0522C61.8483 73.2369 62.8969 72.2823 63.8838 71.1781C68.3864 66.3019 71.7788 58.9024 71.7788 48.4999C71.7788 38.0973 68.3864 30.6979 63.8838 25.8217C62.8969 24.7123 61.8483 23.7577 60.7484 22.9475Z" fill="#F57622"/>
<path d="M89.6088 25.5332L93.6026 36.8955H93.7568L97.7506 25.5332H99.4571L94.5227 39.0318H92.8419L87.9023 25.5332H89.6088Z" fill="#F57622"/>
<path d="M102.036 25.5273H100.406V39.0259H102.036V25.5273Z" fill="#F57622"/>
<path d="M111.413 28.9075C111.336 28.2419 111.012 27.7207 110.452 27.3543C109.891 26.9828 109.203 26.8022 108.39 26.8022C107.794 26.8022 107.275 26.9003 106.833 27.0912C106.391 27.2821 106.041 27.5504 105.795 27.891C105.548 28.2315 105.425 28.6134 105.425 29.0468C105.425 29.408 105.512 29.7176 105.682 29.9705C105.856 30.2285 106.077 30.44 106.35 30.6103C106.622 30.7806 106.905 30.9199 107.203 31.0283C107.501 31.1366 107.774 31.2243 108.025 31.2863L109.393 31.6578C109.742 31.7507 110.133 31.8797 110.565 32.0396C110.996 32.2047 111.408 32.4215 111.803 32.7001C112.199 32.9787 112.528 33.3348 112.785 33.7734C113.042 34.2068 113.171 34.7435 113.171 35.373C113.171 36.1005 112.98 36.761 112.6 37.3493C112.22 37.9375 111.67 38.4071 110.945 38.7528C110.22 39.0985 109.341 39.2739 108.308 39.2739C107.347 39.2739 106.514 39.1191 105.81 38.8044C105.106 38.4948 104.556 38.0562 104.155 37.4989C103.754 36.9416 103.528 36.2915 103.477 35.5536H105.157C105.198 36.0644 105.373 36.4824 105.671 36.8178C105.969 37.148 106.35 37.3957 106.812 37.5557C107.275 37.7156 107.774 37.7982 108.308 37.7982C108.93 37.7982 109.485 37.695 109.984 37.4937C110.477 37.2873 110.868 37.0035 111.161 36.6372C111.449 36.2708 111.593 35.8425 111.593 35.3472C111.593 34.8983 111.469 34.5319 111.217 34.2533C110.966 33.9695 110.642 33.7424 110.231 33.567C109.824 33.3915 109.382 33.2367 108.91 33.1077L107.254 32.633C106.206 32.3286 105.373 31.8951 104.762 31.3327C104.15 30.7703 103.841 30.0324 103.841 29.1242C103.841 28.3709 104.047 27.7104 104.453 27.1428C104.864 26.5803 105.414 26.1366 106.108 25.827C106.802 25.5122 107.578 25.3574 108.437 25.3574C109.295 25.3574 110.071 25.5122 110.75 25.8218C111.423 26.1314 111.958 26.5545 112.353 27.0912C112.749 27.6278 112.96 28.2367 112.98 28.9178H111.402L111.413 28.9075Z" fill="#F57622"/>
<path d="M116.352 25.5273H114.723V39.0259H116.352V25.5273Z" fill="#F57622"/>
<path d="M117.5 26.9832V25.5332H127.585V26.9832H123.354V39.0318H121.725V26.9832H117.5Z" fill="#F57622"/>
<path d="M100.003 45.4663H97.1247C97.0733 45.0948 96.9654 44.7594 96.8009 44.4653C96.6364 44.1711 96.4308 43.9235 96.179 43.7171C95.9271 43.5107 95.6341 43.3507 95.3052 43.2423C94.9762 43.134 94.6164 43.0772 94.2309 43.0772C93.537 43.0772 92.9305 43.2475 92.4113 43.5932C91.8973 43.9389 91.4964 44.4395 91.2086 45.0948C90.9259 45.7501 90.782 46.5499 90.782 47.4839C90.782 48.4178 90.9259 49.2538 91.2137 49.9091C91.5016 50.5644 91.9025 51.0598 92.4165 51.39C92.9305 51.7254 93.5319 51.8905 94.2103 51.8905C94.5907 51.8905 94.9454 51.8389 95.2692 51.7409C95.593 51.6377 95.886 51.4932 96.1378 51.2971C96.3897 51.101 96.6005 50.8637 96.7701 50.5799C96.9397 50.3012 97.0579 49.9762 97.1196 49.615L99.998 49.6304C99.9209 50.2496 99.741 50.8482 99.4429 51.421C99.1499 51.9937 98.749 52.5045 98.2555 52.9586C97.757 53.4075 97.1659 53.7636 96.4822 54.0268C95.7986 54.2899 95.0225 54.4189 94.159 54.4189C92.9613 54.4189 91.8871 54.1454 90.9465 53.6036C90.0058 53.0567 89.2605 52.2672 88.7157 51.2352C88.1709 50.2032 87.8984 48.9545 87.8984 47.4839C87.8984 46.0133 88.176 44.7594 88.726 43.7274C89.276 42.6954 90.0264 41.9059 90.9722 41.3641C91.9179 40.8223 92.9819 40.5488 94.1641 40.5488C94.9454 40.5488 95.665 40.6572 96.3332 40.8791C97.0014 41.101 97.5925 41.4209 98.1116 41.8388C98.6256 42.2568 99.0471 42.7728 99.3761 43.3765C99.6999 43.9854 99.9106 44.6768 100.003 45.4612" fill="#F57622"/>
<path d="M108.294 48.0923L111.635 54.2327H108.495L105.225 48.0923H108.294ZM101.031 54.2378V40.7393H106.336C107.353 40.7393 108.217 40.9199 108.937 41.2811C109.656 41.6423 110.206 42.1531 110.587 42.8187C110.967 43.4792 111.152 44.2584 111.152 45.1511C111.152 46.0437 110.962 46.8177 110.576 47.4627C110.191 48.1077 109.636 48.5979 108.906 48.9437C108.176 49.2842 107.297 49.4597 106.264 49.4597H102.712V47.1635H105.806C106.351 47.1635 106.798 47.0912 107.158 46.9416C107.518 46.7919 107.785 46.5701 107.96 46.2708C108.135 45.9715 108.227 45.6 108.227 45.1562C108.227 44.7125 108.14 44.3306 107.96 44.021C107.785 43.7114 107.513 43.4792 107.153 43.3193C106.793 43.1593 106.336 43.0767 105.791 43.0767H103.874V54.243H101.031V54.2378Z" fill="#F57622"/>
<path d="M112.305 54.2378V40.7393H121.367V43.0922H115.147V46.3069H120.899V48.6599H115.147V51.8849H121.392V54.2378H112.305Z" fill="#F57622"/>
<path d="M122.688 40.7393H126.193L129.899 49.8105H130.053L133.759 40.7393H137.265V54.2378H134.504V45.4503H134.396L130.917 54.1707H129.035L125.556 45.4194H125.443V54.2378H122.688V40.7393Z" fill="#F57622"/>
<path d="M148.108 47.4888C148.108 46.5342 147.969 45.7292 147.686 45.0739C147.404 44.4186 147.008 43.9232 146.494 43.5826C145.98 43.2421 145.384 43.077 144.695 43.077C144.006 43.077 143.41 43.2472 142.896 43.5826C142.382 43.9232 141.986 44.4186 141.703 45.0739C141.421 45.7292 141.282 46.5342 141.282 47.4888C141.282 48.4434 141.421 49.2483 141.703 49.9036C141.986 50.559 142.382 51.0543 142.896 51.3949C143.41 51.7354 144.006 51.9005 144.695 51.9005C145.384 51.9005 145.98 51.7303 146.494 51.3949C147.008 51.0543 147.404 50.559 147.686 49.9036C147.969 49.2483 148.108 48.4434 148.108 47.4888ZM150.991 47.4888C150.991 48.9594 150.714 50.2132 150.159 51.2452C149.604 52.2772 148.853 53.0667 147.902 53.6085C146.951 54.1503 145.882 54.4238 144.695 54.4238C143.508 54.4238 142.428 54.1503 141.477 53.6085C140.526 53.0615 139.776 52.2721 139.226 51.2401C138.676 50.2081 138.398 48.9594 138.398 47.4888C138.398 46.0182 138.676 44.7643 139.226 43.7323C139.776 42.7003 140.526 41.9108 141.477 41.369C142.428 40.8272 143.497 40.5537 144.695 40.5537C145.893 40.5537 146.951 40.8272 147.902 41.369C148.853 41.9108 149.609 42.7003 150.159 43.7323C150.714 44.7643 150.991 46.0182 150.991 47.4888Z" fill="#F57622"/>
<path d="M163.375 40.7393V54.2378H160.923L155.069 45.7393H154.971V54.2378H152.129V40.7393H154.627L160.43 49.2275H160.548V40.7393H163.375Z" fill="#F57622"/>
<path d="M170.365 43.8249H170.468L172.118 48.9333H168.705L170.36 43.8249H170.365ZM168.587 40.7393L163.945 54.2378H166.993L167.99 51.1573H172.848L173.845 54.2378H176.893L172.257 40.7393H168.592H168.587Z" fill="#F57622"/>
<path d="M87.6094 59.0675V58.2832H92.1737V59.0675H90.3336V64.3204H89.4495V59.0675H87.6094Z" fill="#F57622"/>
<path d="M92.7067 61.9571H95.7701V62.726H92.7067V61.9571ZM92.5473 64.3204H91.6016L93.7244 58.2832H94.7524L96.8752 64.3204H95.9295L94.2641 59.3771H94.2178L92.5473 64.3204Z" fill="#F57622"/>
<path d="M97.3555 64.3204V58.2832H98.2447V63.5361H100.917V64.3204H97.3555Z" fill="#F57622"/>
<path d="M101.477 64.3204V58.2832H105.172V59.0675H102.366V60.9045H104.982V61.6888H102.366V63.5361H105.208V64.3204H101.477Z" fill="#F57622"/>
<path d="M109.081 59.8678C109.05 59.5892 108.921 59.3725 108.7 59.2177C108.479 59.0629 108.196 58.9855 107.857 58.9855C107.616 58.9855 107.405 59.0268 107.23 59.1042C107.055 59.1816 106.917 59.2899 106.819 59.4241C106.721 59.5582 106.675 59.713 106.675 59.8833C106.675 60.0278 106.706 60.1516 106.773 60.2548C106.839 60.358 106.927 60.4458 107.035 60.518C107.143 60.5902 107.261 60.647 107.384 60.6935C107.508 60.7399 107.631 60.776 107.744 60.807L108.32 60.9618C108.51 61.0082 108.7 61.0753 108.901 61.1527C109.096 61.2353 109.281 61.3385 109.451 61.4726C109.62 61.6016 109.754 61.7667 109.862 61.9628C109.965 62.1589 110.021 62.3911 110.021 62.6594C110.021 63 109.934 63.3044 109.764 63.5727C109.595 63.8411 109.343 64.0474 109.019 64.2022C108.695 64.357 108.299 64.4345 107.842 64.4345C107.384 64.4345 107.019 64.3622 106.696 64.2177C106.372 64.0733 106.12 63.872 105.94 63.6037C105.76 63.3405 105.657 63.0258 105.637 62.6594H106.531C106.546 62.8761 106.618 63.0619 106.742 63.2064C106.865 63.3509 107.019 63.4592 107.21 63.5263C107.4 63.5934 107.61 63.6295 107.837 63.6295C108.088 63.6295 108.315 63.5882 108.51 63.5057C108.705 63.4231 108.859 63.3096 108.978 63.1651C109.091 63.0206 109.147 62.8452 109.147 62.6491C109.147 62.4685 109.096 62.324 108.998 62.2105C108.901 62.097 108.767 62.0041 108.597 61.9267C108.428 61.8545 108.238 61.7874 108.027 61.7306L107.328 61.5345C106.855 61.4004 106.48 61.2095 106.207 60.9515C105.93 60.6935 105.796 60.3581 105.796 59.9349C105.796 59.5892 105.889 59.2848 106.074 59.0216C106.259 58.7636 106.505 58.5624 106.824 58.4179C107.138 58.2734 107.492 58.2012 107.888 58.2012C108.284 58.2012 108.638 58.2734 108.947 58.4179C109.255 58.5624 109.497 58.7585 109.672 59.0061C109.846 59.259 109.939 59.5428 109.949 59.8678H109.091H109.081Z" fill="#F57622"/>
<path d="M116.656 61.3023C116.656 60.8121 116.579 60.3993 116.425 60.0588C116.27 59.7234 116.06 59.4654 115.792 59.2951C115.525 59.1196 115.222 59.0319 114.883 59.0319C114.543 59.0319 114.24 59.1196 113.973 59.2951C113.706 59.4705 113.495 59.7234 113.341 60.0588C113.186 60.3993 113.109 60.8121 113.109 61.3023C113.109 61.7925 113.186 62.2053 113.341 62.5459C113.495 62.8813 113.706 63.1393 113.973 63.3147C114.24 63.4902 114.543 63.5779 114.883 63.5779C115.222 63.5779 115.525 63.4902 115.792 63.3147C116.06 63.1393 116.27 62.8865 116.425 62.5459C116.579 62.2105 116.656 61.7925 116.656 61.3023ZM117.54 61.3023C117.54 61.9473 117.427 62.4994 117.196 62.9639C116.964 63.4282 116.651 63.7843 116.25 64.032C115.849 64.2797 115.397 64.4035 114.888 64.4035C114.379 64.4035 113.922 64.2797 113.521 64.032C113.12 63.7843 112.806 63.4282 112.575 62.9639C112.344 62.4994 112.23 61.9473 112.23 61.3023C112.23 60.6573 112.344 60.1052 112.575 59.6408C112.806 59.1764 113.12 58.8204 113.521 58.5727C113.922 58.325 114.374 58.2012 114.888 58.2012C115.402 58.2012 115.849 58.325 116.25 58.5727C116.651 58.8204 116.964 59.1764 117.196 59.6408C117.427 60.1052 117.54 60.6573 117.54 61.3023Z" fill="#F57622"/>
<path d="M118.285 64.3204V58.2832H121.945V59.0675H119.174V60.9045H121.683V61.6888H119.174V64.3204H118.285Z" fill="#F57622"/>
<path d="M87.6094 71.9317V65.8945H88.4986V68.5158H91.4387V65.8945H92.333V71.9317H91.4387V69.3001H88.4986V71.9317H87.6094Z" fill="#F57622"/>
<path d="M93.9176 69.5684H96.981V70.3373H93.9176V69.5684ZM93.7583 71.9317H92.8125L94.9353 65.8945H95.9633L98.0861 71.9317H97.1404L95.475 66.9884H95.4288L93.7583 71.9317Z" fill="#F57622"/>
<path d="M101.472 69.2073L102.926 71.9317H101.914L100.485 69.2073H101.472ZM98.5625 71.9317V65.8945H100.665C101.122 65.8945 101.503 65.9719 101.801 66.137C102.104 66.297 102.33 66.5189 102.479 66.8078C102.628 67.0916 102.705 67.4167 102.705 67.7883C102.705 68.1598 102.628 68.4849 102.479 68.7635C102.33 69.0421 102.104 69.2588 101.801 69.4188C101.497 69.5736 101.117 69.651 100.665 69.651H99.0714V68.8667H100.583C100.87 68.8667 101.107 68.8254 101.287 68.7377C101.467 68.6551 101.6 68.5313 101.688 68.3713C101.77 68.2114 101.816 68.0153 101.816 67.7883C101.816 67.5612 101.775 67.3651 101.688 67.1948C101.6 67.0297 101.467 66.9007 101.287 66.8078C101.107 66.7201 100.865 66.6737 100.572 66.6737H99.4569V71.9317H98.5676H98.5625Z" fill="#F57622"/>
<path d="M103.477 65.8945H104.556L106.432 70.585H106.499L108.375 65.8945H109.46V71.9317H108.611V67.5612H108.555L106.818 71.9214H106.113L104.376 67.5612H104.32V71.9317H103.477V65.8945Z" fill="#F57622"/>
<path d="M114.638 68.9127C114.638 68.4225 114.561 68.0097 114.406 67.6691C114.252 67.3337 114.041 67.0757 113.774 66.9054C113.507 66.73 113.204 66.6423 112.864 66.6423C112.525 66.6423 112.222 66.73 111.955 66.9054C111.687 67.0809 111.477 67.3337 111.322 67.6691C111.168 68.0097 111.091 68.4225 111.091 68.9127C111.091 69.4029 111.168 69.8157 111.322 70.1562C111.477 70.4916 111.687 70.7496 111.955 70.9251C112.222 71.1005 112.525 71.1882 112.864 71.1882C113.204 71.1882 113.507 71.1005 113.774 70.9251C114.041 70.7496 114.252 70.4968 114.406 70.1562C114.561 69.8208 114.638 69.4029 114.638 68.9127ZM115.517 68.9127C115.517 69.5577 115.404 70.1098 115.172 70.5742C114.941 71.0386 114.627 71.3946 114.226 71.6423C113.826 71.89 113.373 72.0138 112.864 72.0138C112.356 72.0138 111.898 71.89 111.497 71.6423C111.096 71.3946 110.783 71.0386 110.551 70.5742C110.32 70.1098 110.207 69.5577 110.207 68.9127C110.207 68.2677 110.32 67.7156 110.551 67.2512C110.783 66.7868 111.096 66.4307 111.497 66.183C111.898 65.9354 112.35 65.8115 112.864 65.8115C113.378 65.8115 113.826 65.9354 114.226 66.183C114.627 66.4307 114.941 66.7868 115.172 67.2512C115.404 67.7156 115.517 68.2677 115.517 68.9127Z" fill="#F57622"/>
<path d="M121.021 65.8945V71.9317H120.204L117.207 67.5044H117.151V71.9317H116.262V65.8945H117.084L120.086 70.327H120.142V65.8945H121.021Z" fill="#F57622"/>
<path d="M122.881 65.8945H121.992V71.9317H122.881V65.8945Z" fill="#F57622"/>
<path d="M123.852 71.9317V65.8945H127.552V66.6788H124.741V68.5158H127.357V69.3001H124.741V71.1474H127.583V71.9317H123.852Z" fill="#F57622"/>
<path d="M131.456 67.4785C131.425 67.1998 131.296 66.9831 131.075 66.8283C130.854 66.6735 130.571 66.5961 130.232 66.5961C129.991 66.5961 129.78 66.6374 129.605 66.7148C129.43 66.7922 129.292 66.9006 129.194 67.0347C129.096 67.1689 129.05 67.3237 129.05 67.494C129.05 67.6384 129.081 67.7623 129.148 67.8655C129.214 67.9687 129.302 68.0564 129.41 68.1286C129.518 68.2009 129.636 68.2576 129.759 68.3041C129.883 68.3505 130.006 68.3866 130.119 68.4176L130.695 68.5724C130.885 68.6188 131.075 68.6859 131.276 68.7633C131.471 68.8459 131.656 68.9491 131.826 69.0832C131.995 69.2122 132.129 69.3774 132.237 69.5734C132.34 69.7695 132.396 70.0017 132.396 70.27C132.396 70.6106 132.309 70.915 132.139 71.1782C131.97 71.4465 131.718 71.6529 131.394 71.8077C131.07 71.9625 130.674 72.0399 130.217 72.0399C129.759 72.0399 129.394 71.9677 129.071 71.8232C128.747 71.6787 128.495 71.4775 128.315 71.2092C128.135 70.946 128.032 70.6312 128.012 70.2649H128.906C128.921 70.4816 128.993 70.6622 129.117 70.8118C129.24 70.9563 129.394 71.0647 129.585 71.1318C129.775 71.1988 129.985 71.235 130.212 71.235C130.463 71.235 130.69 71.1937 130.885 71.1111C131.08 71.0286 131.234 70.915 131.353 70.7706C131.466 70.6261 131.522 70.4506 131.522 70.2546C131.522 70.074 131.471 69.9295 131.373 69.816C131.276 69.7024 131.142 69.6096 130.972 69.5322C130.803 69.4599 130.613 69.3928 130.402 69.3361L129.703 69.14C129.23 69.0058 128.855 68.8149 128.582 68.5569C128.305 68.3041 128.171 67.9635 128.171 67.5404C128.171 67.1947 128.264 66.8902 128.449 66.6271C128.634 66.3691 128.88 66.1678 129.199 66.0234C129.513 65.8789 129.867 65.8066 130.263 65.8066C130.659 65.8066 131.013 65.8789 131.322 66.0234C131.63 66.1678 131.872 66.3639 132.047 66.6116C132.221 66.8644 132.314 67.1482 132.324 67.4733H131.466L131.456 67.4785Z" fill="#F57622"/>
</svg>
